<?xml version="1.0" encoding="UTF-8" standalone="no"?>
<!DOCTYPE svg PUBLIC "-//W3C//DTD SVG 1.1//EN"
 "http://www.w3.org/Graphics/SVG/1.1/DTD/svg11.dtd">
<!-- Generated by graphviz version 2.49.3 (0)
 -->
<!-- Pages: 1 -->
<svg width="862pt" height="836pt"
 viewBox="0.00 0.00 861.74 836.00" xmlns="http://www.w3.org/2000/svg" xmlns:xlink="http://www.w3.org/1999/xlink">
<g id="graph0" class="graph" transform="scale(1 1) rotate(0) translate(4 832)">
<polygon fill="white" stroke="transparent" points="-4,4 -4,-832 857.74,-832 857.74,4 -4,4"/>
<!-- 0 -->
<g id="node1" class="node">
<title>0</title>
<polygon fill="none" stroke="black" points="224.05,-828 160.05,-828 160.05,-792 224.05,-792 224.05,-828"/>
<text text-anchor="middle" x="192.05" y="-806.3" font-family="Times,serif" font-size="14.00">monke</text>
</g>
<!-- 1 -->
<g id="node2" class="node">
<title>1</title>
<polygon fill="none" stroke="black" points="219.05,-684 165.05,-684 165.05,-648 219.05,-648 219.05,-684"/>
<text text-anchor="middle" x="192.05" y="-662.3" font-family="Times,serif" font-size="14.00">ast</text>
</g>
<!-- 0&#45;&gt;1 -->
<g id="edge1" class="edge">
<title>0&#45;&gt;1</title>
<path fill="none" stroke="black" d="M192.05,-791.87C192.05,-767.67 192.05,-723.21 192.05,-694.39"/>
<polygon fill="black" stroke="black" points="195.55,-694.19 192.05,-684.19 188.55,-694.19 195.55,-694.19"/>
</g>
<!-- 4 -->
<g id="node5" class="node">
<title>4</title>
<polygon fill="none" stroke="black" points="278.55,-612 215.55,-612 215.55,-576 278.55,-576 278.55,-612"/>
<text text-anchor="middle" x="247.05" y="-590.3" font-family="Times,serif" font-size="14.00">parser</text>
</g>
<!-- 0&#45;&gt;4 -->
<g id="edge3" class="edge">
<title>0&#45;&gt;4</title>
<path fill="none" stroke="black" d="M180.69,-791.82C161.89,-761.01 128.93,-695.18 156.05,-648 166.88,-629.15 187.28,-616.38 206.03,-608.1"/>
<polygon fill="black" stroke="black" points="207.41,-611.32 215.33,-604.29 204.75,-604.84 207.41,-611.32"/>
</g>
<!-- 5 -->
<g id="node6" class="node">
<title>5</title>
<polygon fill="none" stroke="black" points="350.05,-756 296.05,-756 296.05,-720 350.05,-720 350.05,-756"/>
<text text-anchor="middle" x="323.05" y="-734.3" font-family="Times,serif" font-size="14.00">hir</text>
</g>
<!-- 0&#45;&gt;5 -->
<g id="edge2" class="edge">
<title>0&#45;&gt;5</title>
<path fill="none" stroke="black" d="M224.09,-791.88C243.06,-781.74 267.13,-768.88 286.79,-758.37"/>
<polygon fill="black" stroke="black" points="288.59,-761.38 295.76,-753.58 285.29,-755.21 288.59,-761.38"/>
</g>
<!-- 2 -->
<g id="node3" class="node">
<title>2</title>
<polygon fill="none" stroke="black" points="519.05,-540 455.05,-540 455.05,-504 519.05,-504 519.05,-540"/>
<text text-anchor="middle" x="487.05" y="-518.3" font-family="Times,serif" font-size="14.00">syntax</text>
</g>
<!-- 1&#45;&gt;2 -->
<g id="edge5" class="edge">
<title>1&#45;&gt;2</title>
<path fill="none" stroke="black" d="M219.27,-651.9C271.13,-626.93 384.35,-572.43 445.64,-542.93"/>
<polygon fill="black" stroke="black" points="447.53,-545.91 455.02,-538.42 444.49,-539.6 447.53,-545.91"/>
</g>
<!-- 1&#45;&gt;4 -->
<g id="edge4" class="edge">
<title>1&#45;&gt;4</title>
<path fill="none" stroke="blue" d="M205.64,-647.7C212.17,-639.39 220.11,-629.28 227.29,-620.14"/>
<polygon fill="blue" stroke="blue" points="230.18,-622.13 233.61,-612.1 224.68,-617.81 230.18,-622.13"/>
</g>
<!-- 7 -->
<g id="node8" class="node">
<title>7</title>
<ellipse fill="none" stroke="black" cx="50.05" cy="-378" rx="50.09" ry="18"/>
<text text-anchor="middle" x="50.05" y="-374.3" font-family="Times,serif" font-size="14.00">text&#45;size</text>
</g>
<!-- 1&#45;&gt;7 -->
<g id="edge6" class="edge">
<title>1&#45;&gt;7</title>
<path fill="none" stroke="black" d="M166.52,-647.91C136.46,-626.39 87.31,-586.54 61.05,-540 37.44,-498.17 40.52,-440.16 45.13,-406.4"/>
<polygon fill="black" stroke="black" points="48.61,-406.75 46.65,-396.34 41.69,-405.71 48.61,-406.75"/>
</g>
<!-- 3 -->
<g id="node4" class="node">
<title>3</title>
<polygon fill="none" stroke="black" points="387.05,-468 333.05,-468 333.05,-432 387.05,-432 387.05,-468"/>
<text text-anchor="middle" x="360.05" y="-446.3" font-family="Times,serif" font-size="14.00">lexer</text>
</g>
<!-- 2&#45;&gt;3 -->
<g id="edge7" class="edge">
<title>2&#45;&gt;3</title>
<path fill="none" stroke="black" d="M455.98,-503.88C437.93,-493.93 415.1,-481.35 396.24,-470.95"/>
<polygon fill="black" stroke="black" points="397.79,-467.81 387.34,-466.05 394.41,-473.94 397.79,-467.81"/>
</g>
<!-- 8 -->
<g id="node9" class="node">
<title>8</title>
<ellipse fill="none" stroke="#00cd00" cx="790.05" cy="-306" rx="63.89" ry="18"/>
<text text-anchor="middle" x="790.05" y="-302.3" font-family="Times,serif" font-size="14.00">num&#45;derive</text>
</g>
<!-- 2&#45;&gt;8 -->
<g id="edge8" class="edge">
<title>2&#45;&gt;8</title>
<path fill="none" stroke="#00cd00" d="M519.34,-520.05C563.97,-517.28 645.28,-506.81 701.05,-468 747.57,-435.62 772.36,-370.75 783.19,-334.01"/>
<polygon fill="#00cd00" stroke="#00cd00" points="786.67,-334.58 786,-324.01 779.93,-332.69 786.67,-334.58"/>
</g>
<!-- 9 -->
<g id="node10" class="node">
<title>9</title>
<ellipse fill="none" stroke="black" cx="632.05" cy="-450" rx="59.59" ry="18"/>
<text text-anchor="middle" x="632.05" y="-446.3" font-family="Times,serif" font-size="14.00">num&#45;traits</text>
</g>
<!-- 2&#45;&gt;9 -->
<g id="edge9" class="edge">
<title>2&#45;&gt;9</title>
<path fill="none" stroke="black" d="M519.23,-505.46C540.78,-495.06 569.32,-481.28 592.3,-470.19"/>
<polygon fill="black" stroke="black" points="593.96,-473.27 601.44,-465.77 590.92,-466.97 593.96,-473.27"/>
</g>
<!-- 10 -->
<g id="node11" class="node">
<title>10</title>
<ellipse fill="none" stroke="black" cx="445.05" cy="-450" rx="39.79" ry="18"/>
<text text-anchor="middle" x="445.05" y="-446.3" font-family="Times,serif" font-size="14.00">rowan</text>
</g>
<!-- 2&#45;&gt;10 -->
<g id="edge10" class="edge">
<title>2&#45;&gt;10</title>
<path fill="none" stroke="black" d="M476.66,-503.7C471.71,-495.44 465.68,-485.39 460.23,-476.3"/>
<polygon fill="black" stroke="black" points="463.17,-474.4 455.02,-467.62 457.16,-478 463.17,-474.4"/>
</g>
<!-- 3&#45;&gt;7 -->
<g id="edge12" class="edge">
<title>3&#45;&gt;7</title>
<path fill="none" stroke="black" d="M332.84,-435.2C329.92,-434.01 326.95,-432.91 324.05,-432 231.59,-403.04 203.53,-417.45 109.05,-396 104.95,-395.07 100.72,-394.03 96.5,-392.92"/>
<polygon fill="black" stroke="black" points="97.27,-389.5 86.7,-390.27 95.44,-396.26 97.27,-389.5"/>
</g>
<!-- 11 -->
<g id="node12" class="node">
<title>11</title>
<ellipse fill="none" stroke="black" cx="153.05" cy="-378" rx="35.19" ry="18"/>
<text text-anchor="middle" x="153.05" y="-374.3" font-family="Times,serif" font-size="14.00">logos</text>
</g>
<!-- 3&#45;&gt;11 -->
<g id="edge11" class="edge">
<title>3&#45;&gt;11</title>
<path fill="none" stroke="black" d="M332.73,-435.53C329.83,-434.27 326.89,-433.07 324.05,-432 269.11,-411.4 252.69,-414.59 197.05,-396 194.51,-395.15 191.91,-394.25 189.3,-393.31"/>
<polygon fill="black" stroke="black" points="190.49,-390.02 179.89,-389.83 188.06,-396.58 190.49,-390.02"/>
</g>
<!-- 4&#45;&gt;2 -->
<g id="edge17" class="edge">
<title>4&#45;&gt;2</title>
<path fill="none" stroke="black" d="M278.88,-585.21C317.52,-575.55 384.53,-558.13 441.05,-540 442.46,-539.54 443.9,-539.07 445.36,-538.59"/>
<polygon fill="black" stroke="black" points="446.69,-541.83 455,-535.25 444.4,-535.21 446.69,-541.83"/>
</g>
<!-- 4&#45;&gt;3 -->
<g id="edge15" class="edge">
<title>4&#45;&gt;3</title>
<path fill="none" stroke="black" d="M246.67,-575.92C247.09,-556.66 250.42,-525.26 266.05,-504 270.02,-498.59 299.04,-482.61 323.79,-469.6"/>
<polygon fill="black" stroke="black" points="325.42,-472.7 332.66,-464.97 322.18,-466.5 325.42,-472.7"/>
</g>
<!-- 4&#45;&gt;7 -->
<g id="edge18" class="edge">
<title>4&#45;&gt;7</title>
<path fill="none" stroke="black" d="M215.22,-591.46C178.71,-587.94 119.56,-576.54 86.05,-540 52.18,-503.08 47.79,-441.46 48.4,-406.12"/>
<polygon fill="black" stroke="black" points="51.9,-406.16 48.72,-396.05 44.9,-405.93 51.9,-406.16"/>
</g>
<!-- 4&#45;&gt;10 -->
<g id="edge16" class="edge">
<title>4&#45;&gt;10</title>
<path fill="none" stroke="black" d="M278.82,-585.86C320.08,-576.05 389.05,-557.6 408.05,-540 425.63,-523.71 435.12,-497.78 440.07,-478.1"/>
<polygon fill="black" stroke="black" points="443.52,-478.72 442.32,-468.19 436.69,-477.17 443.52,-478.72"/>
</g>
<!-- 12 -->
<g id="node13" class="node">
<title>12</title>
<ellipse fill="none" stroke="black" cx="337.05" cy="-522" rx="62.29" ry="18"/>
<text text-anchor="middle" x="337.05" y="-518.3" font-family="Times,serif" font-size="14.00">drop_bomb</text>
</g>
<!-- 4&#45;&gt;12 -->
<g id="edge13" class="edge">
<title>4&#45;&gt;12</title>
<path fill="none" stroke="black" d="M269.29,-575.7C281.08,-566.53 295.69,-555.17 308.32,-545.34"/>
<polygon fill="black" stroke="black" points="310.54,-548.05 316.29,-539.14 306.25,-542.52 310.54,-548.05"/>
</g>
<!-- 13 -->
<g id="node14" class="node">
<title>13</title>
<ellipse fill="none" stroke="blue" cx="157.05" cy="-522" rx="62.29" ry="18"/>
<text text-anchor="middle" x="157.05" y="-518.3" font-family="Times,serif" font-size="14.00">expect&#45;test</text>
</g>
<!-- 4&#45;&gt;13 -->
<g id="edge14" class="edge">
<title>4&#45;&gt;13</title>
<path fill="none" stroke="blue" d="M224.8,-575.7C213.01,-566.53 198.4,-555.17 185.77,-545.34"/>
<polygon fill="blue" stroke="blue" points="187.85,-542.52 177.8,-539.14 183.55,-548.05 187.85,-542.52"/>
</g>
<!-- 5&#45;&gt;1 -->
<g id="edge19" class="edge">
<title>5&#45;&gt;1</title>
<path fill="none" stroke="black" d="M295.9,-722.5C276.23,-711.98 249.43,-697.66 227.98,-686.2"/>
<polygon fill="black" stroke="black" points="229.62,-683.11 219.15,-681.49 226.32,-689.29 229.62,-683.11"/>
</g>
<!-- 5&#45;&gt;2 -->
<g id="edge23" class="edge">
<title>5&#45;&gt;2</title>
<path fill="none" stroke="black" d="M350.16,-737.9C390.1,-737.57 463.71,-730.27 498.05,-684 527.22,-644.68 511.44,-584.02 498.48,-549.48"/>
<polygon fill="black" stroke="black" points="501.69,-548.08 494.77,-540.06 495.18,-550.64 501.69,-548.08"/>
</g>
<!-- 5&#45;&gt;4 -->
<g id="edge21" class="edge">
<title>5&#45;&gt;4</title>
<path fill="none" stroke="blue" d="M298.65,-719.96C287.07,-710.63 274.05,-698.1 266.05,-684 255.29,-665.05 250.61,-640.68 248.58,-622.24"/>
<polygon fill="blue" stroke="blue" points="252.05,-621.79 247.66,-612.15 245.08,-622.42 252.05,-621.79"/>
</g>
<!-- 14 -->
<g id="node15" class="node">
<title>14</title>
<ellipse fill="none" stroke="black" cx="323.05" cy="-666" rx="48.19" ry="18"/>
<text text-anchor="middle" x="323.05" y="-662.3" font-family="Times,serif" font-size="14.00">la&#45;arena</text>
</g>
<!-- 5&#45;&gt;14 -->
<g id="edge20" class="edge">
<title>5&#45;&gt;14</title>
<path fill="none" stroke="black" d="M323.05,-719.7C323.05,-711.98 323.05,-702.71 323.05,-694.11"/>
<polygon fill="black" stroke="black" points="326.55,-694.1 323.05,-684.1 319.55,-694.1 326.55,-694.1"/>
</g>
<!-- 15 -->
<g id="node16" class="node">
<title>15</title>
<ellipse fill="none" stroke="black" cx="439.05" cy="-666" rx="50.09" ry="18"/>
<text text-anchor="middle" x="439.05" y="-662.3" font-family="Times,serif" font-size="14.00">smol_str</text>
</g>
<!-- 5&#45;&gt;15 -->
<g id="edge22" class="edge">
<title>5&#45;&gt;15</title>
<path fill="none" stroke="black" d="M350.24,-720.59C366.78,-710.61 388.02,-697.79 405.59,-687.19"/>
<polygon fill="black" stroke="black" points="407.64,-690.04 414.39,-681.88 404.02,-684.05 407.64,-690.04"/>
</g>
<!-- 6 -->
<g id="node7" class="node">
<title>6</title>
<polygon fill="none" stroke="black" points="466.05,-828 412.05,-828 412.05,-792 466.05,-792 466.05,-828"/>
<text text-anchor="middle" x="439.05" y="-806.3" font-family="Times,serif" font-size="14.00">fuzz</text>
</g>
<!-- 6&#45;&gt;1 -->
<g id="edge24" class="edge">
<title>6&#45;&gt;1</title>
<path fill="none" stroke="black" d="M412.03,-803.2C380.44,-795.63 327.33,-780.38 287.05,-756 258.49,-738.72 231.27,-711.77 213.35,-692.05"/>
<polygon fill="black" stroke="black" points="215.76,-689.49 206.49,-684.35 210.53,-694.15 215.76,-689.49"/>
</g>
<!-- 6&#45;&gt;4 -->
<g id="edge27" class="edge">
<title>6&#45;&gt;4</title>
<path fill="none" stroke="black" d="M455.45,-791.67C483.39,-760.05 533.86,-692.16 498.05,-648 484.9,-631.79 356.53,-610.92 288.65,-600.89"/>
<polygon fill="black" stroke="black" points="289.1,-597.42 278.7,-599.43 288.08,-604.34 289.1,-597.42"/>
</g>
<!-- 6&#45;&gt;5 -->
<g id="edge25" class="edge">
<title>6&#45;&gt;5</title>
<path fill="none" stroke="black" d="M411.85,-792.59C396,-783.02 375.82,-770.85 358.7,-760.52"/>
<polygon fill="black" stroke="black" points="360.44,-757.48 350.07,-755.31 356.83,-763.47 360.44,-757.48"/>
</g>
<!-- 16 -->
<g id="node17" class="node">
<title>16</title>
<ellipse fill="none" stroke="black" cx="653.05" cy="-738" rx="69.59" ry="18"/>
<text text-anchor="middle" x="653.05" y="-734.3" font-family="Times,serif" font-size="14.00">libfuzzer&#45;sys</text>
</g>
<!-- 6&#45;&gt;16 -->
<g id="edge26" class="edge">
<title>6&#45;&gt;16</title>
<path fill="none" stroke="black" d="M466.15,-800.13C500.16,-789.01 559.21,-769.69 601.84,-755.75"/>
<polygon fill="black" stroke="black" points="603.07,-759.03 611.49,-752.59 600.89,-752.38 603.07,-759.03"/>
</g>
<!-- 17 -->
<g id="node18" class="node">
<title>17</title>
<ellipse fill="none" stroke="#00cd00" cx="683.05" cy="-90" rx="68.79" ry="18"/>
<text text-anchor="middle" x="683.05" y="-86.3" font-family="Times,serif" font-size="14.00">proc&#45;macro2</text>
</g>
<!-- 8&#45;&gt;17 -->
<g id="edge28" class="edge">
<title>8&#45;&gt;17</title>
<path fill="none" stroke="#00cd00" d="M795.83,-287.83C801.06,-269.58 806.83,-240.09 799.05,-216 784.79,-171.9 744.59,-134.99 715.51,-112.97"/>
<polygon fill="#00cd00" stroke="#00cd00" points="717.38,-110.01 707.26,-106.89 713.23,-115.64 717.38,-110.01"/>
</g>
<!-- 18 -->
<g id="node19" class="node">
<title>18</title>
<ellipse fill="none" stroke="#00cd00" cx="677.05" cy="-162" rx="37.09" ry="18"/>
<text text-anchor="middle" x="677.05" y="-158.3" font-family="Times,serif" font-size="14.00">quote</text>
</g>
<!-- 8&#45;&gt;18 -->
<g id="edge29" class="edge">
<title>8&#45;&gt;18</title>
<path fill="none" stroke="#00cd00" d="M767.3,-289.07C754.46,-279.34 738.71,-266.09 727.05,-252 711.07,-232.7 697.49,-207.58 688.53,-188.95"/>
<polygon fill="#00cd00" stroke="#00cd00" points="691.69,-187.44 684.28,-179.86 685.35,-190.4 691.69,-187.44"/>
</g>
<!-- 19 -->
<g id="node20" class="node">
<title>19</title>
<ellipse fill="none" stroke="#00cd00" cx="763.05" cy="-234" rx="27" ry="18"/>
<text text-anchor="middle" x="763.05" y="-230.3" font-family="Times,serif" font-size="14.00">syn</text>
</g>
<!-- 8&#45;&gt;19 -->
<g id="edge30" class="edge">
<title>8&#45;&gt;19</title>
<path fill="none" stroke="#00cd00" d="M783.51,-288.05C780.43,-280.06 776.67,-270.33 773.23,-261.4"/>
<polygon fill="#00cd00" stroke="#00cd00" points="776.39,-259.86 769.52,-251.79 769.85,-262.38 776.39,-259.86"/>
</g>
<!-- 20 -->
<g id="node21" class="node">
<title>20</title>
<ellipse fill="none" stroke="#00cd00" cx="663.05" cy="-306" rx="45.49" ry="18"/>
<text text-anchor="middle" x="663.05" y="-302.3" font-family="Times,serif" font-size="14.00">autocfg</text>
</g>
<!-- 9&#45;&gt;20 -->
<g id="edge31" class="edge">
<title>9&#45;&gt;20</title>
<path fill="none" stroke="#00cd00" d="M675.82,-437.63C697.02,-429.68 720.55,-416.67 733.05,-396 741.32,-382.31 740.17,-374.33 733.05,-360 725.93,-345.69 712.91,-334.22 700.01,-325.65"/>
<polygon fill="#00cd00" stroke="#00cd00" points="701.52,-322.47 691.17,-320.19 697.84,-328.42 701.52,-322.47"/>
</g>
<!-- 10&#45;&gt;7 -->
<g id="edge36" class="edge">
<title>10&#45;&gt;7</title>
<path fill="none" stroke="black" d="M415.8,-437.74C409.37,-435.57 402.53,-433.51 396.05,-432 270.86,-402.77 234.97,-421.88 109.05,-396 104.88,-395.14 100.57,-394.14 96.27,-393.06"/>
<polygon fill="black" stroke="black" points="96.9,-389.6 86.33,-390.42 95.1,-396.37 96.9,-389.6"/>
</g>
<!-- 21 -->
<g id="node22" class="node">
<title>21</title>
<ellipse fill="none" stroke="black" cx="394.05" cy="-378" rx="50.89" ry="18"/>
<text text-anchor="middle" x="394.05" y="-374.3" font-family="Times,serif" font-size="14.00">countme</text>
</g>
<!-- 10&#45;&gt;21 -->
<g id="edge32" class="edge">
<title>10&#45;&gt;21</title>
<path fill="none" stroke="black" d="M433.22,-432.76C426.94,-424.14 419.08,-413.36 412.06,-403.73"/>
<polygon fill="black" stroke="black" points="414.88,-401.65 406.16,-395.63 409.22,-405.78 414.88,-401.65"/>
</g>
<!-- 22 -->
<g id="node23" class="node">
<title>22</title>
<ellipse fill="none" stroke="black" cx="524.05" cy="-378" rx="61.99" ry="18"/>
<text text-anchor="middle" x="524.05" y="-374.3" font-family="Times,serif" font-size="14.00">hashbrown</text>
</g>
<!-- 10&#45;&gt;22 -->
<g id="edge33" class="edge">
<title>10&#45;&gt;22</title>
<path fill="none" stroke="black" d="M462.58,-433.46C472.99,-424.24 486.4,-412.36 498.03,-402.05"/>
<polygon fill="black" stroke="black" points="500.57,-404.47 505.74,-395.22 495.93,-399.23 500.57,-404.47"/>
</g>
<!-- 23 -->
<g id="node24" class="node">
<title>23</title>
<ellipse fill="none" stroke="black" cx="664.05" cy="-378" rx="59.59" ry="18"/>
<text text-anchor="middle" x="664.05" y="-374.3" font-family="Times,serif" font-size="14.00">memoffset</text>
</g>
<!-- 10&#45;&gt;23 -->
<g id="edge34" class="edge">
<title>10&#45;&gt;23</title>
<path fill="none" stroke="black" d="M476.42,-438.97C512.63,-427.4 572.62,-408.22 615.01,-394.67"/>
<polygon fill="black" stroke="black" points="616.11,-398 624.57,-391.62 613.98,-391.33 616.11,-398"/>
</g>
<!-- 24 -->
<g id="node25" class="node">
<title>24</title>
<ellipse fill="none" stroke="black" cx="266.05" cy="-378" rx="59.59" ry="18"/>
<text text-anchor="middle" x="266.05" y="-374.3" font-family="Times,serif" font-size="14.00">rustc&#45;hash</text>
</g>
<!-- 10&#45;&gt;24 -->
<g id="edge35" class="edge">
<title>10&#45;&gt;24</title>
<path fill="none" stroke="black" d="M415.89,-437.6C387.31,-426.42 343.35,-409.23 310.43,-396.36"/>
<polygon fill="black" stroke="black" points="311.62,-393.06 301.03,-392.68 309.07,-399.58 311.62,-393.06"/>
</g>
<!-- 25 -->
<g id="node26" class="node">
<title>25</title>
<ellipse fill="none" stroke="#00cd00" stroke-dasharray="5,2" cx="452.05" cy="-306" rx="67.69" ry="18"/>
<text text-anchor="middle" x="452.05" y="-302.3" font-family="Times,serif" font-size="14.00">logos&#45;derive</text>
</g>
<!-- 11&#45;&gt;25 -->
<g id="edge37" class="edge">
<title>11&#45;&gt;25</title>
<path fill="none" stroke="#00cd00" stroke-dasharray="1,5" d="M179.33,-366.04C185.1,-363.86 191.23,-361.71 197.05,-360 260.07,-341.41 333.7,-326.85 385.6,-317.73"/>
<polygon fill="#00cd00" stroke="#00cd00" points="386.43,-321.14 395.68,-315.98 385.23,-314.24 386.43,-321.14"/>
</g>
<!-- 26 -->
<g id="node27" class="node">
<title>26</title>
<ellipse fill="none" stroke="blue" cx="135.05" cy="-450" rx="56.59" ry="18"/>
<text text-anchor="middle" x="135.05" y="-446.3" font-family="Times,serif" font-size="14.00">dissimilar</text>
</g>
<!-- 13&#45;&gt;26 -->
<g id="edge38" class="edge">
<title>13&#45;&gt;26</title>
<path fill="none" stroke="blue" d="M151.72,-504.05C149.27,-496.26 146.3,-486.82 143.56,-478.08"/>
<polygon fill="blue" stroke="blue" points="146.81,-476.77 140.47,-468.28 140.13,-478.86 146.81,-476.77"/>
</g>
<!-- 27 -->
<g id="node28" class="node">
<title>27</title>
<ellipse fill="none" stroke="blue" cx="262.05" cy="-450" rx="52.79" ry="18"/>
<text text-anchor="middle" x="262.05" y="-446.3" font-family="Times,serif" font-size="14.00">once_cell</text>
</g>
<!-- 13&#45;&gt;27 -->
<g id="edge39" class="edge">
<title>13&#45;&gt;27</title>
<path fill="none" stroke="blue" d="M180.61,-505.29C195.3,-495.5 214.39,-482.77 230.4,-472.1"/>
<polygon fill="blue" stroke="blue" points="232.54,-474.88 238.92,-466.42 228.66,-469.05 232.54,-474.88"/>
</g>
<!-- 28 -->
<g id="node29" class="node">
<title>28</title>
<ellipse fill="none" stroke="black" stroke-dasharray="5,2" cx="439.05" cy="-594" rx="36.29" ry="18"/>
<text text-anchor="middle" x="439.05" y="-590.3" font-family="Times,serif" font-size="14.00">serde</text>
</g>
<!-- 15&#45;&gt;28 -->
<g id="edge40" class="edge">
<title>15&#45;&gt;28</title>
<path fill="none" stroke="black" stroke-dasharray="1,5" d="M439.05,-647.7C439.05,-639.98 439.05,-630.71 439.05,-622.11"/>
<polygon fill="black" stroke="black" points="442.55,-622.1 439.05,-612.1 435.55,-622.1 442.55,-622.1"/>
</g>
<!-- 29 -->
<g id="node30" class="node">
<title>29</title>
<ellipse fill="none" stroke="black" cx="645.05" cy="-666" rx="52.79" ry="18"/>
<text text-anchor="middle" x="645.05" y="-662.3" font-family="Times,serif" font-size="14.00">arbitrary</text>
</g>
<!-- 16&#45;&gt;29 -->
<g id="edge41" class="edge">
<title>16&#45;&gt;29</title>
<path fill="none" stroke="black" d="M651.07,-719.7C650.19,-711.98 649.13,-702.71 648.14,-694.11"/>
<polygon fill="black" stroke="black" points="651.61,-693.64 647,-684.1 644.66,-694.44 651.61,-693.64"/>
</g>
<!-- 30 -->
<g id="node31" class="node">
<title>30</title>
<ellipse fill="none" stroke="#00cd00" cx="743.05" cy="-666" rx="27" ry="18"/>
<text text-anchor="middle" x="743.05" y="-662.3" font-family="Times,serif" font-size="14.00">cc</text>
</g>
<!-- 16&#45;&gt;30 -->
<g id="edge42" class="edge">
<title>16&#45;&gt;30</title>
<path fill="none" stroke="#00cd00" d="M673.92,-720.76C687.08,-710.53 704.14,-697.26 718.03,-686.46"/>
<polygon fill="#00cd00" stroke="#00cd00" points="720.45,-689.01 726.2,-680.1 716.15,-683.48 720.45,-689.01"/>
</g>
<!-- 31 -->
<g id="node32" class="node">
<title>31</title>
<ellipse fill="none" stroke="#00cd00" cx="731.05" cy="-18" rx="63.89" ry="18"/>
<text text-anchor="middle" x="731.05" y="-14.3" font-family="Times,serif" font-size="14.00">unicode&#45;xid</text>
</g>
<!-- 17&#45;&gt;31 -->
<g id="edge43" class="edge">
<title>17&#45;&gt;31</title>
<path fill="none" stroke="#00cd00" d="M694.67,-72.05C700.38,-63.71 707.39,-53.49 713.73,-44.25"/>
<polygon fill="#00cd00" stroke="#00cd00" points="716.76,-46.02 719.53,-35.79 710.99,-42.06 716.76,-46.02"/>
</g>
<!-- 18&#45;&gt;17 -->
<g id="edge44" class="edge">
<title>18&#45;&gt;17</title>
<path fill="none" stroke="#00cd00" d="M678.53,-143.7C679.19,-135.98 679.98,-126.71 680.72,-118.11"/>
<polygon fill="#00cd00" stroke="#00cd00" points="684.21,-118.37 681.58,-108.1 677.24,-117.77 684.21,-118.37"/>
</g>
<!-- 19&#45;&gt;17 -->
<g id="edge45" class="edge">
<title>19&#45;&gt;17</title>
<path fill="none" stroke="#00cd00" d="M756.87,-216.38C749.78,-198.07 737.28,-168.05 723.05,-144 717.41,-134.48 710.37,-124.64 703.78,-116.07"/>
<polygon fill="#00cd00" stroke="#00cd00" points="706.35,-113.67 697.41,-107.98 700.85,-118 706.35,-113.67"/>
</g>
<!-- 19&#45;&gt;18 -->
<g id="edge46" class="edge">
<title>19&#45;&gt;18</title>
<path fill="none" stroke="#00cd00" stroke-dasharray="1,5" d="M746.46,-219.5C734.22,-209.54 717.32,-195.78 703.26,-184.34"/>
<polygon fill="#00cd00" stroke="#00cd00" points="705.33,-181.51 695.36,-177.91 700.91,-186.94 705.33,-181.51"/>
</g>
<!-- 19&#45;&gt;31 -->
<g id="edge47" class="edge">
<title>19&#45;&gt;31</title>
<path fill="none" stroke="#00cd00" d="M765.6,-215.7C769.4,-185.78 774.75,-122.74 761.05,-72 758.45,-62.4 753.72,-52.71 748.77,-44.28"/>
<polygon fill="#00cd00" stroke="#00cd00" points="751.67,-42.32 743.4,-35.7 745.74,-46.03 751.67,-42.32"/>
</g>
<!-- 23&#45;&gt;20 -->
<g id="edge48" class="edge">
<title>23&#45;&gt;20</title>
<path fill="none" stroke="#00cd00" d="M663.8,-359.7C663.69,-351.98 663.56,-342.71 663.43,-334.11"/>
<polygon fill="#00cd00" stroke="#00cd00" points="666.93,-334.05 663.29,-324.1 659.93,-334.15 666.93,-334.05"/>
</g>
<!-- 25&#45;&gt;17 -->
<g id="edge51" class="edge">
<title>25&#45;&gt;17</title>
<path fill="none" stroke="#00cd00" stroke-dasharray="5,2" d="M439.1,-288.16C426.39,-269.39 410.81,-238.71 425.05,-216 466.73,-149.48 554.98,-117.48 616.6,-102.71"/>
<polygon fill="#00cd00" stroke="#00cd00" points="617.67,-106.06 626.63,-100.4 616.1,-99.24 617.67,-106.06"/>
</g>
<!-- 25&#45;&gt;18 -->
<g id="edge52" class="edge">
<title>25&#45;&gt;18</title>
<path fill="none" stroke="#00cd00" stroke-dasharray="5,2" d="M519.3,-303.37C562.27,-298.8 616.25,-285.97 651.05,-252 667.47,-235.96 673.66,-210.18 675.93,-190.48"/>
<polygon fill="#00cd00" stroke="#00cd00" points="679.44,-190.53 676.82,-180.27 672.46,-189.92 679.44,-190.53"/>
</g>
<!-- 25&#45;&gt;19 -->
<g id="edge54" class="edge">
<title>25&#45;&gt;19</title>
<path fill="none" stroke="#00cd00" stroke-dasharray="5,2" d="M502.01,-293.75C565.25,-279.52 672.56,-255.37 727.83,-242.93"/>
<polygon fill="#00cd00" stroke="#00cd00" points="728.85,-246.28 737.84,-240.67 727.32,-239.45 728.85,-246.28"/>
</g>
<!-- 32 -->
<g id="node33" class="node">
<title>32</title>
<ellipse fill="none" stroke="#00cd00" stroke-dasharray="5,2" cx="611.05" cy="-234" rx="30.59" ry="18"/>
<text text-anchor="middle" x="611.05" y="-230.3" font-family="Times,serif" font-size="14.00">beef</text>
</g>
<!-- 25&#45;&gt;32 -->
<g id="edge49" class="edge">
<title>25&#45;&gt;32</title>
<path fill="none" stroke="#00cd00" stroke-dasharray="5,2" d="M485.38,-290.33C512.47,-278.4 550.5,-261.66 577.61,-249.72"/>
<polygon fill="#00cd00" stroke="#00cd00" points="579.33,-252.79 587.07,-245.56 576.51,-246.38 579.33,-252.79"/>
</g>
<!-- 33 -->
<g id="node34" class="node">
<title>33</title>
<ellipse fill="none" stroke="#00cd00" stroke-dasharray="5,2" cx="193.05" cy="-234" rx="27" ry="18"/>
<text text-anchor="middle" x="193.05" y="-230.3" font-family="Times,serif" font-size="14.00">fnv</text>
</g>
<!-- 25&#45;&gt;33 -->
<g id="edge50" class="edge">
<title>25&#45;&gt;33</title>
<path fill="none" stroke="#00cd00" stroke-dasharray="5,2" d="M397.52,-295.34C351.81,-286.45 285.19,-271.69 229.05,-252 227.14,-251.33 225.2,-250.59 223.25,-249.81"/>
<polygon fill="#00cd00" stroke="#00cd00" points="224.24,-246.42 213.68,-245.64 221.45,-252.84 224.24,-246.42"/>
</g>
<!-- 34 -->
<g id="node35" class="node">
<title>34</title>
<ellipse fill="none" stroke="#00cd00" stroke-dasharray="5,2" cx="308.05" cy="-234" rx="70.39" ry="18"/>
<text text-anchor="middle" x="308.05" y="-230.3" font-family="Times,serif" font-size="14.00">regex&#45;syntax</text>
</g>
<!-- 25&#45;&gt;34 -->
<g id="edge53" class="edge">
<title>25&#45;&gt;34</title>
<path fill="none" stroke="#00cd00" stroke-dasharray="5,2" d="M421.15,-289.98C399.95,-279.67 371.58,-265.88 348.56,-254.69"/>
<polygon fill="#00cd00" stroke="#00cd00" points="349.91,-251.46 339.38,-250.23 346.85,-257.75 349.91,-251.46"/>
</g>
<!-- 35 -->
<g id="node36" class="node">
<title>35</title>
<ellipse fill="none" stroke="#00cd00" stroke-dasharray="5,2" cx="498.05" cy="-234" rx="64.19" ry="18"/>
<text text-anchor="middle" x="498.05" y="-230.3" font-family="Times,serif" font-size="14.00">utf8&#45;ranges</text>
</g>
<!-- 25&#45;&gt;35 -->
<g id="edge55" class="edge">
<title>25&#45;&gt;35</title>
<path fill="none" stroke="#00cd00" stroke-dasharray="5,2" d="M463.18,-288.05C468.66,-279.71 475.38,-269.49 481.45,-260.25"/>
<polygon fill="#00cd00" stroke="#00cd00" points="484.45,-262.07 487.01,-251.79 478.6,-258.22 484.45,-262.07"/>
</g>
</g>
</svg>
