<?xml version="1.0" encoding="UTF-8" standalone="no"?>
<!DOCTYPE svg PUBLIC "-//W3C//DTD SVG 1.1//EN"
 "http://www.w3.org/Graphics/SVG/1.1/DTD/svg11.dtd">
<!-- Generated by graphviz version 2.49.3 (0)
 -->
<!-- Pages: 1 -->
<svg width="1516pt" height="692pt"
 viewBox="0.00 0.00 1515.99 692.00" xmlns="http://www.w3.org/2000/svg" xmlns:xlink="http://www.w3.org/1999/xlink">
<g id="graph0" class="graph" transform="scale(1 1) rotate(0) translate(4 688)">
<polygon fill="white" stroke="transparent" points="-4,4 -4,-688 1511.99,-688 1511.99,4 -4,4"/>
<!-- 0 -->
<g id="node1" class="node">
<title>0</title>
<polygon fill="none" stroke="black" points="790.19,-684 726.19,-684 726.19,-648 790.19,-648 790.19,-684"/>
<text text-anchor="middle" x="758.19" y="-662.3" font-family="Times,serif" font-size="14.00">monke</text>
</g>
<!-- 1 -->
<g id="node2" class="node">
<title>1</title>
<polygon fill="none" stroke="black" points="789.69,-612 726.69,-612 726.69,-576 789.69,-576 789.69,-612"/>
<text text-anchor="middle" x="758.19" y="-590.3" font-family="Times,serif" font-size="14.00">parser</text>
</g>
<!-- 0&#45;&gt;1 -->
<g id="edge1" class="edge">
<title>0&#45;&gt;1</title>
<path fill="none" stroke="black" d="M758.19,-647.7C758.19,-639.98 758.19,-630.71 758.19,-622.11"/>
<polygon fill="black" stroke="black" points="761.69,-622.1 758.19,-612.1 754.69,-622.1 761.69,-622.1"/>
</g>
<!-- 2 -->
<g id="node3" class="node">
<title>2</title>
<polygon fill="none" stroke="black" points="568.19,-468 514.19,-468 514.19,-432 568.19,-432 568.19,-468"/>
<text text-anchor="middle" x="541.19" y="-446.3" font-family="Times,serif" font-size="14.00">lexer</text>
</g>
<!-- 1&#45;&gt;2 -->
<g id="edge4" class="edge">
<title>1&#45;&gt;2</title>
<path fill="none" stroke="black" d="M726.68,-581.32C702.83,-571.83 669.77,-557.21 643.19,-540 614.11,-521.17 584.7,-494.51 564.98,-475.28"/>
<polygon fill="black" stroke="black" points="567.24,-472.59 557.66,-468.06 562.32,-477.57 567.24,-472.59"/>
</g>
<!-- 3 -->
<g id="node4" class="node">
<title>3</title>
<polygon fill="none" stroke="black" points="716.19,-540 652.19,-540 652.19,-504 716.19,-504 716.19,-540"/>
<text text-anchor="middle" x="684.19" y="-518.3" font-family="Times,serif" font-size="14.00">syntax</text>
</g>
<!-- 1&#45;&gt;3 -->
<g id="edge6" class="edge">
<title>1&#45;&gt;3</title>
<path fill="none" stroke="black" d="M739.9,-575.7C730.76,-567.05 719.55,-556.45 709.59,-547.03"/>
<polygon fill="black" stroke="black" points="711.95,-544.43 702.28,-540.1 707.13,-549.52 711.95,-544.43"/>
</g>
<!-- 4 -->
<g id="node5" class="node">
<title>4</title>
<ellipse fill="none" stroke="black" cx="848.19" cy="-522" rx="62.29" ry="18"/>
<text text-anchor="middle" x="848.19" y="-518.3" font-family="Times,serif" font-size="14.00">drop_bomb</text>
</g>
<!-- 1&#45;&gt;4 -->
<g id="edge2" class="edge">
<title>1&#45;&gt;4</title>
<path fill="none" stroke="black" d="M780.44,-575.7C792.23,-566.53 806.84,-555.17 819.47,-545.34"/>
<polygon fill="black" stroke="black" points="821.69,-548.05 827.44,-539.14 817.39,-542.52 821.69,-548.05"/>
</g>
<!-- 5 -->
<g id="node6" class="node">
<title>5</title>
<ellipse fill="none" stroke="blue" cx="998.19" cy="-522" rx="62.29" ry="18"/>
<text text-anchor="middle" x="998.19" y="-518.3" font-family="Times,serif" font-size="14.00">expect&#45;test</text>
</g>
<!-- 1&#45;&gt;5 -->
<g id="edge3" class="edge">
<title>1&#45;&gt;5</title>
<path fill="none" stroke="blue" d="M790.06,-583.7C829.82,-572.11 898.35,-552.12 945.86,-538.26"/>
<polygon fill="blue" stroke="blue" points="947.04,-541.57 955.66,-535.41 945.08,-534.85 947.04,-541.57"/>
</g>
<!-- 6 -->
<g id="node7" class="node">
<title>6</title>
<ellipse fill="none" stroke="black" cx="884.19" cy="-450" rx="39.79" ry="18"/>
<text text-anchor="middle" x="884.19" y="-446.3" font-family="Times,serif" font-size="14.00">rowan</text>
</g>
<!-- 1&#45;&gt;6 -->
<g id="edge5" class="edge">
<title>1&#45;&gt;6</title>
<path fill="none" stroke="black" d="M757.62,-575.76C757.85,-556.36 761,-524.83 777.19,-504 792.93,-483.75 818.44,-470.7 840.6,-462.61"/>
<polygon fill="black" stroke="black" points="841.85,-465.89 850.18,-459.34 839.59,-459.26 841.85,-465.89"/>
</g>
<!-- 7 -->
<g id="node8" class="node">
<title>7</title>
<ellipse fill="none" stroke="black" cx="475.19" cy="-378" rx="35.19" ry="18"/>
<text text-anchor="middle" x="475.19" y="-374.3" font-family="Times,serif" font-size="14.00">logos</text>
</g>
<!-- 2&#45;&gt;7 -->
<g id="edge7" class="edge">
<title>2&#45;&gt;7</title>
<path fill="none" stroke="black" d="M524.88,-431.7C516.45,-422.75 506.04,-411.71 496.93,-402.06"/>
<polygon fill="black" stroke="black" points="499.38,-399.55 489.97,-394.67 494.28,-404.35 499.38,-399.55"/>
</g>
<!-- 3&#45;&gt;2 -->
<g id="edge8" class="edge">
<title>3&#45;&gt;2</title>
<path fill="none" stroke="black" d="M652.1,-505.29C629.96,-494.45 600.47,-480.02 577.47,-468.76"/>
<polygon fill="black" stroke="black" points="578.89,-465.56 568.37,-464.3 575.81,-471.84 578.89,-465.56"/>
</g>
<!-- 3&#45;&gt;6 -->
<g id="edge11" class="edge">
<title>3&#45;&gt;6</title>
<path fill="none" stroke="black" d="M716.33,-509.75C751.09,-497.58 806.58,-478.16 844.16,-465.01"/>
<polygon fill="black" stroke="black" points="845.5,-468.25 853.78,-461.65 843.18,-461.65 845.5,-468.25"/>
</g>
<!-- 8 -->
<g id="node9" class="node">
<title>8</title>
<ellipse fill="none" stroke="#00cd00" cx="588.19" cy="-306" rx="63.89" ry="18"/>
<text text-anchor="middle" x="588.19" y="-302.3" font-family="Times,serif" font-size="14.00">num&#45;derive</text>
</g>
<!-- 3&#45;&gt;8 -->
<g id="edge9" class="edge">
<title>3&#45;&gt;8</title>
<path fill="none" stroke="#00cd00" d="M652.24,-503.79C638.71,-494.89 624.06,-482.76 615.19,-468 590.17,-426.35 586.55,-368.28 586.9,-334.46"/>
<polygon fill="#00cd00" stroke="#00cd00" points="590.4,-334.46 587.12,-324.38 583.4,-334.3 590.4,-334.46"/>
</g>
<!-- 9 -->
<g id="node10" class="node">
<title>9</title>
<ellipse fill="none" stroke="black" cx="684.19" cy="-450" rx="59.59" ry="18"/>
<text text-anchor="middle" x="684.19" y="-446.3" font-family="Times,serif" font-size="14.00">num&#45;traits</text>
</g>
<!-- 3&#45;&gt;9 -->
<g id="edge10" class="edge">
<title>3&#45;&gt;9</title>
<path fill="none" stroke="black" d="M684.19,-503.7C684.19,-495.98 684.19,-486.71 684.19,-478.11"/>
<polygon fill="black" stroke="black" points="687.69,-478.1 684.19,-468.1 680.69,-478.1 687.69,-478.1"/>
</g>
<!-- 10 -->
<g id="node11" class="node">
<title>10</title>
<ellipse fill="none" stroke="blue" cx="998.19" cy="-450" rx="56.59" ry="18"/>
<text text-anchor="middle" x="998.19" y="-446.3" font-family="Times,serif" font-size="14.00">dissimilar</text>
</g>
<!-- 5&#45;&gt;10 -->
<g id="edge12" class="edge">
<title>5&#45;&gt;10</title>
<path fill="none" stroke="blue" d="M998.19,-503.7C998.19,-495.98 998.19,-486.71 998.19,-478.11"/>
<polygon fill="blue" stroke="blue" points="1001.69,-478.1 998.19,-468.1 994.69,-478.1 1001.69,-478.1"/>
</g>
<!-- 11 -->
<g id="node12" class="node">
<title>11</title>
<ellipse fill="none" stroke="blue" cx="1125.19" cy="-450" rx="52.79" ry="18"/>
<text text-anchor="middle" x="1125.19" y="-446.3" font-family="Times,serif" font-size="14.00">once_cell</text>
</g>
<!-- 5&#45;&gt;11 -->
<g id="edge13" class="edge">
<title>5&#45;&gt;11</title>
<path fill="none" stroke="blue" d="M1025.75,-505.81C1044.48,-495.49 1069.42,-481.74 1089.64,-470.6"/>
<polygon fill="blue" stroke="blue" points="1091.49,-473.57 1098.56,-465.68 1088.11,-467.44 1091.49,-473.57"/>
</g>
<!-- 12 -->
<g id="node13" class="node">
<title>12</title>
<ellipse fill="none" stroke="black" cx="888.19" cy="-378" rx="61.99" ry="18"/>
<text text-anchor="middle" x="888.19" y="-374.3" font-family="Times,serif" font-size="14.00">hashbrown</text>
</g>
<!-- 6&#45;&gt;12 -->
<g id="edge14" class="edge">
<title>6&#45;&gt;12</title>
<path fill="none" stroke="black" d="M885.18,-431.7C885.62,-423.98 886.15,-414.71 886.64,-406.11"/>
<polygon fill="black" stroke="black" points="890.14,-406.29 887.22,-396.1 883.15,-405.89 890.14,-406.29"/>
</g>
<!-- 13 -->
<g id="node14" class="node">
<title>13</title>
<ellipse fill="none" stroke="black" cx="1028.19" cy="-378" rx="59.59" ry="18"/>
<text text-anchor="middle" x="1028.19" y="-374.3" font-family="Times,serif" font-size="14.00">rustc&#45;hash</text>
</g>
<!-- 6&#45;&gt;13 -->
<g id="edge15" class="edge">
<title>6&#45;&gt;13</title>
<path fill="none" stroke="black" d="M910.27,-436.32C932.19,-425.67 963.86,-410.28 988.86,-398.12"/>
<polygon fill="black" stroke="black" points="990.61,-401.16 998.08,-393.64 987.55,-394.86 990.61,-401.16"/>
</g>
<!-- 14 -->
<g id="node15" class="node">
<title>14</title>
<ellipse fill="none" stroke="black" cx="1156.19" cy="-378" rx="50.09" ry="18"/>
<text text-anchor="middle" x="1156.19" y="-374.3" font-family="Times,serif" font-size="14.00">smol_str</text>
</g>
<!-- 6&#45;&gt;14 -->
<g id="edge16" class="edge">
<title>6&#45;&gt;14</title>
<path fill="none" stroke="black" d="M913.71,-437.89C919.78,-435.79 926.16,-433.72 932.19,-432 1004.38,-411.43 1024.43,-414.4 1097.19,-396 1101.04,-395.03 1105.01,-393.98 1108.99,-392.9"/>
<polygon fill="black" stroke="black" points="1110.14,-396.21 1118.84,-390.16 1108.27,-389.47 1110.14,-396.21"/>
</g>
<!-- 15 -->
<g id="node16" class="node">
<title>15</title>
<ellipse fill="none" stroke="black" cx="758.19" cy="-378" rx="50.09" ry="18"/>
<text text-anchor="middle" x="758.19" y="-374.3" font-family="Times,serif" font-size="14.00">text&#45;size</text>
</g>
<!-- 6&#45;&gt;15 -->
<g id="edge17" class="edge">
<title>6&#45;&gt;15</title>
<path fill="none" stroke="black" d="M860.2,-435.67C841.2,-425.12 814.41,-410.23 793.06,-398.37"/>
<polygon fill="black" stroke="black" points="794.71,-395.29 784.27,-393.49 791.31,-401.4 794.71,-395.29"/>
</g>
<!-- 16 -->
<g id="node17" class="node">
<title>16</title>
<ellipse fill="none" stroke="black" cx="1277.19" cy="-378" rx="53.09" ry="18"/>
<text text-anchor="middle" x="1277.19" y="-374.3" font-family="Times,serif" font-size="14.00">triomphe</text>
</g>
<!-- 6&#45;&gt;16 -->
<g id="edge18" class="edge">
<title>6&#45;&gt;16</title>
<path fill="none" stroke="black" d="M913.09,-437.65C919.31,-435.52 925.92,-433.49 932.19,-432 1055.55,-402.67 1090.86,-420.83 1215.19,-396 1219.62,-395.12 1224.2,-394.09 1228.77,-392.98"/>
<polygon fill="black" stroke="black" points="1229.87,-396.31 1238.7,-390.46 1228.15,-389.53 1229.87,-396.31"/>
</g>
<!-- 17 -->
<g id="node18" class="node">
<title>17</title>
<ellipse fill="none" stroke="#00cd00" stroke-dasharray="5,2" cx="412.19" cy="-306" rx="67.69" ry="18"/>
<text text-anchor="middle" x="412.19" y="-302.3" font-family="Times,serif" font-size="14.00">logos&#45;derive</text>
</g>
<!-- 7&#45;&gt;17 -->
<g id="edge19" class="edge">
<title>7&#45;&gt;17</title>
<path fill="none" stroke="#00cd00" stroke-dasharray="1,5" d="M461.21,-361.46C453.32,-352.69 443.27,-341.53 434.33,-331.6"/>
<polygon fill="#00cd00" stroke="#00cd00" points="436.75,-329.05 427.46,-323.96 431.55,-333.74 436.75,-329.05"/>
</g>
<!-- 18 -->
<g id="node19" class="node">
<title>18</title>
<ellipse fill="none" stroke="#00cd00" cx="581.19" cy="-90" rx="68.79" ry="18"/>
<text text-anchor="middle" x="581.19" y="-86.3" font-family="Times,serif" font-size="14.00">proc&#45;macro2</text>
</g>
<!-- 8&#45;&gt;18 -->
<g id="edge20" class="edge">
<title>8&#45;&gt;18</title>
<path fill="none" stroke="#00cd00" d="M600.09,-288.12C619.53,-258.33 653.94,-194.78 633.19,-144 628.55,-132.65 620.18,-122.41 611.49,-114.03"/>
<polygon fill="#00cd00" stroke="#00cd00" points="613.63,-111.25 603.86,-107.17 608.95,-116.46 613.63,-111.25"/>
</g>
<!-- 19 -->
<g id="node20" class="node">
<title>19</title>
<ellipse fill="none" stroke="#00cd00" cx="587.19" cy="-162" rx="37.09" ry="18"/>
<text text-anchor="middle" x="587.19" y="-158.3" font-family="Times,serif" font-size="14.00">quote</text>
</g>
<!-- 8&#45;&gt;19 -->
<g id="edge21" class="edge">
<title>8&#45;&gt;19</title>
<path fill="none" stroke="#00cd00" d="M589.49,-287.94C590.69,-270.02 592.14,-241.03 591.19,-216 590.88,-207.67 590.29,-198.61 589.66,-190.38"/>
<polygon fill="#00cd00" stroke="#00cd00" points="593.12,-189.85 588.82,-180.17 586.15,-190.42 593.12,-189.85"/>
</g>
<!-- 20 -->
<g id="node21" class="node">
<title>20</title>
<ellipse fill="none" stroke="#00cd00" cx="522.19" cy="-234" rx="27" ry="18"/>
<text text-anchor="middle" x="522.19" y="-230.3" font-family="Times,serif" font-size="14.00">syn</text>
</g>
<!-- 8&#45;&gt;20 -->
<g id="edge22" class="edge">
<title>8&#45;&gt;20</title>
<path fill="none" stroke="#00cd00" d="M572.55,-288.41C563.68,-279 552.47,-267.12 542.88,-256.94"/>
<polygon fill="#00cd00" stroke="#00cd00" points="545.34,-254.45 535.93,-249.57 540.25,-259.25 545.34,-254.45"/>
</g>
<!-- 21 -->
<g id="node22" class="node">
<title>21</title>
<ellipse fill="none" stroke="#00cd00" cx="1087.19" cy="-234" rx="45.49" ry="18"/>
<text text-anchor="middle" x="1087.19" y="-230.3" font-family="Times,serif" font-size="14.00">autocfg</text>
</g>
<!-- 9&#45;&gt;21 -->
<g id="edge23" class="edge">
<title>9&#45;&gt;21</title>
<path fill="none" stroke="#00cd00" d="M682.19,-431.74C680.9,-412.02 681.97,-379.91 699.19,-360 784.05,-261.88 946.31,-240.19 1031.62,-235.78"/>
<polygon fill="#00cd00" stroke="#00cd00" points="1031.8,-239.27 1041.63,-235.32 1031.49,-232.28 1031.8,-239.27"/>
</g>
<!-- 22 -->
<g id="node23" class="node">
<title>22</title>
<ellipse fill="none" stroke="black" stroke-dasharray="5,2" cx="1130.19" cy="-306" rx="36.29" ry="18"/>
<text text-anchor="middle" x="1130.19" y="-302.3" font-family="Times,serif" font-size="14.00">serde</text>
</g>
<!-- 14&#45;&gt;22 -->
<g id="edge24" class="edge">
<title>14&#45;&gt;22</title>
<path fill="none" stroke="black" stroke-dasharray="1,5" d="M1149.9,-360.05C1146.93,-352.06 1143.32,-342.33 1140,-333.4"/>
<polygon fill="black" stroke="black" points="1143.19,-331.94 1136.43,-323.79 1136.63,-334.38 1143.19,-331.94"/>
</g>
<!-- 16&#45;&gt;22 -->
<g id="edge26" class="edge">
<title>16&#45;&gt;22</title>
<path fill="none" stroke="black" stroke-dasharray="1,5" d="M1247.45,-362.83C1223.49,-351.43 1189.79,-335.38 1164.66,-323.41"/>
<polygon fill="black" stroke="black" points="1166.02,-320.19 1155.49,-319.05 1163.01,-326.51 1166.02,-320.19"/>
</g>
<!-- 23 -->
<g id="node24" class="node">
<title>23</title>
<ellipse fill="none" stroke="black" cx="1448.19" cy="-306" rx="59.59" ry="18"/>
<text text-anchor="middle" x="1448.19" y="-302.3" font-family="Times,serif" font-size="14.00">memoffset</text>
</g>
<!-- 16&#45;&gt;23 -->
<g id="edge25" class="edge">
<title>16&#45;&gt;23</title>
<path fill="none" stroke="black" d="M1309.76,-363.67C1336.78,-352.61 1375.42,-336.79 1405.02,-324.67"/>
<polygon fill="black" stroke="black" points="1406.36,-327.91 1414.29,-320.88 1403.71,-321.43 1406.36,-327.91"/>
</g>
<!-- 24 -->
<g id="node25" class="node">
<title>24</title>
<ellipse fill="none" stroke="black" stroke-dasharray="5,2" cx="1277.19" cy="-306" rx="92.88" ry="18"/>
<text text-anchor="middle" x="1277.19" y="-302.3" font-family="Times,serif" font-size="14.00">stable_deref_trait</text>
</g>
<!-- 16&#45;&gt;24 -->
<g id="edge27" class="edge">
<title>16&#45;&gt;24</title>
<path fill="none" stroke="black" stroke-dasharray="1,5" d="M1277.19,-359.7C1277.19,-351.98 1277.19,-342.71 1277.19,-334.11"/>
<polygon fill="black" stroke="black" points="1280.69,-334.1 1277.19,-324.1 1273.69,-334.1 1280.69,-334.1"/>
</g>
<!-- 17&#45;&gt;18 -->
<g id="edge30" class="edge">
<title>17&#45;&gt;18</title>
<path fill="none" stroke="#00cd00" stroke-dasharray="5,2" d="M376.92,-290.5C360.81,-281.88 343.31,-269.22 334.19,-252 326.71,-237.86 325.82,-229.63 334.19,-216 373.81,-151.56 458.08,-119.1 517.12,-103.67"/>
<polygon fill="#00cd00" stroke="#00cd00" points="518.26,-106.99 527.1,-101.16 516.55,-100.2 518.26,-106.99"/>
</g>
<!-- 17&#45;&gt;19 -->
<g id="edge31" class="edge">
<title>17&#45;&gt;19</title>
<path fill="none" stroke="#00cd00" stroke-dasharray="5,2" d="M469.71,-296.51C499.68,-289.33 534.85,-276.13 558.19,-252 574.3,-235.34 581.47,-209.63 584.65,-190.12"/>
<polygon fill="#00cd00" stroke="#00cd00" points="588.14,-190.39 586.04,-180.01 581.21,-189.44 588.14,-190.39"/>
</g>
<!-- 17&#45;&gt;20 -->
<g id="edge33" class="edge">
<title>17&#45;&gt;20</title>
<path fill="none" stroke="#00cd00" stroke-dasharray="5,2" d="M437.15,-289.12C454.21,-278.26 476.83,-263.87 494.45,-252.65"/>
<polygon fill="#00cd00" stroke="#00cd00" points="496.6,-255.44 503.15,-247.12 492.84,-249.53 496.6,-255.44"/>
</g>
<!-- 25 -->
<g id="node26" class="node">
<title>25</title>
<ellipse fill="none" stroke="#00cd00" stroke-dasharray="5,2" cx="374.19" cy="-234" rx="30.59" ry="18"/>
<text text-anchor="middle" x="374.19" y="-230.3" font-family="Times,serif" font-size="14.00">beef</text>
</g>
<!-- 17&#45;&gt;25 -->
<g id="edge28" class="edge">
<title>17&#45;&gt;25</title>
<path fill="none" stroke="#00cd00" stroke-dasharray="5,2" d="M403,-288.05C398.45,-279.68 392.87,-269.4 387.84,-260.13"/>
<polygon fill="#00cd00" stroke="#00cd00" points="390.89,-258.43 383.05,-251.31 384.74,-261.77 390.89,-258.43"/>
</g>
<!-- 26 -->
<g id="node27" class="node">
<title>26</title>
<ellipse fill="none" stroke="#00cd00" stroke-dasharray="5,2" cx="450.19" cy="-234" rx="27" ry="18"/>
<text text-anchor="middle" x="450.19" y="-230.3" font-family="Times,serif" font-size="14.00">fnv</text>
</g>
<!-- 17&#45;&gt;26 -->
<g id="edge29" class="edge">
<title>17&#45;&gt;26</title>
<path fill="none" stroke="#00cd00" stroke-dasharray="5,2" d="M421.39,-288.05C425.94,-279.68 431.52,-269.4 436.55,-260.13"/>
<polygon fill="#00cd00" stroke="#00cd00" points="439.65,-261.77 441.34,-251.31 433.49,-258.43 439.65,-261.77"/>
</g>
<!-- 27 -->
<g id="node28" class="node">
<title>27</title>
<ellipse fill="none" stroke="#00cd00" stroke-dasharray="5,2" cx="70.19" cy="-234" rx="70.39" ry="18"/>
<text text-anchor="middle" x="70.19" y="-230.3" font-family="Times,serif" font-size="14.00">regex&#45;syntax</text>
</g>
<!-- 17&#45;&gt;27 -->
<g id="edge32" class="edge">
<title>17&#45;&gt;27</title>
<path fill="none" stroke="#00cd00" stroke-dasharray="5,2" d="M359.47,-294.49C306.54,-283.91 222.67,-267.03 150.19,-252 144.4,-250.8 138.38,-249.54 132.35,-248.27"/>
<polygon fill="#00cd00" stroke="#00cd00" points="132.76,-244.78 122.25,-246.14 131.31,-251.63 132.76,-244.78"/>
</g>
<!-- 28 -->
<g id="node29" class="node">
<title>28</title>
<ellipse fill="none" stroke="#00cd00" stroke-dasharray="5,2" cx="223.19" cy="-234" rx="64.19" ry="18"/>
<text text-anchor="middle" x="223.19" y="-230.3" font-family="Times,serif" font-size="14.00">utf8&#45;ranges</text>
</g>
<!-- 17&#45;&gt;28 -->
<g id="edge34" class="edge">
<title>17&#45;&gt;28</title>
<path fill="none" stroke="#00cd00" stroke-dasharray="5,2" d="M374.4,-291C344.33,-279.87 302.11,-264.23 269.92,-252.31"/>
<polygon fill="#00cd00" stroke="#00cd00" points="270.87,-248.93 260.28,-248.73 268.44,-255.49 270.87,-248.93"/>
</g>
<!-- 29 -->
<g id="node30" class="node">
<title>29</title>
<ellipse fill="none" stroke="#00cd00" cx="532.19" cy="-18" rx="63.89" ry="18"/>
<text text-anchor="middle" x="532.19" y="-14.3" font-family="Times,serif" font-size="14.00">unicode&#45;xid</text>
</g>
<!-- 18&#45;&gt;29 -->
<g id="edge35" class="edge">
<title>18&#45;&gt;29</title>
<path fill="none" stroke="#00cd00" d="M569.33,-72.05C563.49,-63.71 556.34,-53.49 549.87,-44.25"/>
<polygon fill="#00cd00" stroke="#00cd00" points="552.55,-41.97 543.95,-35.79 546.81,-45.99 552.55,-41.97"/>
</g>
<!-- 19&#45;&gt;18 -->
<g id="edge36" class="edge">
<title>19&#45;&gt;18</title>
<path fill="none" stroke="#00cd00" d="M585.71,-143.7C585.05,-135.98 584.25,-126.71 583.52,-118.11"/>
<polygon fill="#00cd00" stroke="#00cd00" points="587,-117.77 582.66,-108.1 580.03,-118.37 587,-117.77"/>
</g>
<!-- 20&#45;&gt;18 -->
<g id="edge37" class="edge">
<title>20&#45;&gt;18</title>
<path fill="none" stroke="#00cd00" d="M523.62,-215.91C525.66,-197.47 530.43,-167.57 541.19,-144 545.72,-134.09 552.35,-124.28 558.92,-115.83"/>
<polygon fill="#00cd00" stroke="#00cd00" points="561.79,-117.86 565.39,-107.9 556.36,-113.44 561.79,-117.86"/>
</g>
<!-- 20&#45;&gt;19 -->
<g id="edge38" class="edge">
<title>20&#45;&gt;19</title>
<path fill="none" stroke="#00cd00" stroke-dasharray="1,5" d="M535.98,-218.15C544.53,-208.94 555.71,-196.91 565.44,-186.43"/>
<polygon fill="#00cd00" stroke="#00cd00" points="568.29,-188.51 572.53,-178.8 563.16,-183.74 568.29,-188.51"/>
</g>
<!-- 20&#45;&gt;29 -->
<g id="edge39" class="edge">
<title>20&#45;&gt;29</title>
<path fill="none" stroke="#00cd00" d="M516.26,-216.28C506.65,-186.73 490.02,-123.54 503.19,-72 505.64,-62.45 510.19,-52.76 514.99,-44.33"/>
<polygon fill="#00cd00" stroke="#00cd00" points="518,-46.11 520.19,-35.74 512.01,-42.49 518,-46.11"/>
</g>
<!-- 23&#45;&gt;21 -->
<g id="edge40" class="edge">
<title>23&#45;&gt;21</title>
<path fill="none" stroke="#00cd00" d="M1404.12,-293.71C1395.86,-291.72 1387.28,-289.73 1379.19,-288 1295.3,-270.07 1197.01,-253.04 1138.54,-243.33"/>
<polygon fill="#00cd00" stroke="#00cd00" points="1138.89,-239.84 1128.46,-241.66 1137.75,-246.75 1138.89,-239.84"/>
</g>
</g>
</svg>
